<?xml version="1.0" encoding="UTF-8"?>
<svg xmlns="http://www.w3.org/2000/svg" xmlns:xlink="http://www.w3.org/1999/xlink" width="480px" height="480px" viewBox="0 0 480 480" version="1.1">
<g id="surface416344">
<path style=" stroke:none;fill-rule:nonzero;fill:rgb(40.392157%,22.745098%,71.764706%);fill-opacity:1;" d="M 420 370 C 420 397.621094 397.621094 420 370 420 L 110 420 C 82.390625 420 60 397.621094 60 370 L 60 110 C 60 82.378906 82.390625 60 110 60 L 370 60 C 397.621094 60 420 82.378906 420 110 Z M 420 370 "/>
<path style=" stroke:none;fill-rule:nonzero;fill:rgb(100%,100%,100%);fill-opacity:1;" d="M 330.300781 256 C 323.800781 247 314.398438 240.800781 302.300781 237.5 C 302.300781 237.5 312.5 233.800781 321.699219 220 C 327.199219 211.199219 330 200.601562 330 188.199219 C 330 166.699219 322.199219 150.199219 306.601562 138.898438 C 291 127.601562 273.398438 120 243.5 120 L 150 120 L 150 360 L 254.300781 360 C 282.601562 359.800781 303.898438 353.699219 318.398438 342 C 332.800781 330.101562 340 312.5 340 289 C 340 276 336.800781 265 330.300781 256 Z M 210 160 C 210 160 251.699219 160 252.5 160 C 267.699219 160 280 172.300781 280 187.5 C 280 202.699219 267.699219 215 252.5 215 C 251.699219 215 210 215 210 215 Z M 260 320 L 210 320 L 210 260 L 260 260 C 276.601562 260 290 273.398438 290 290 C 290 306.601562 276.601562 320 260 320 Z M 260 320 "/>
</g>
</svg>
