<?xml version="1.0" encoding="UTF-8"?>
<svg xmlns="http://www.w3.org/2000/svg" xmlns:xlink="http://www.w3.org/1999/xlink" width="480px" height="480px" viewBox="0 0 480 480" version="1.1">
<g id="surface415716">
<path style=" stroke:none;fill-rule:nonzero;fill:rgb(100%,100%,100%);fill-opacity:1;" d="M 440.828125 297.898438 C 439 289.609375 431.480469 279.941406 416.308594 279.941406 C 413.210938 279.941406 409.820312 280.328125 405.960938 281.128906 C 398.878906 282.589844 392.851562 283.300781 387.539062 283.539062 C 428.871094 213.140625 455.699219 115.351562 429.128906 81.398438 C 394.121094 36.671875 346.988281 29.988281 322.019531 29.988281 L 319.671875 30 C 310.378906 30.148438 300.738281 31.289062 291.039062 33.390625 L 255.210938 41.128906 C 250.328125 40.519531 245.359375 40.089844 240.179688 40 L 239.71875 40 L 238.199219 39.988281 C 222.269531 39.988281 207.738281 43.371094 194.789062 49.71875 L 182.28125 44.789062 C 165.078125 38.011719 139.199219 29.941406 113.601562 29.941406 C 112.160156 29.941406 110.730469 29.96875 109.289062 30.019531 C 84.070312 30.929688 62.410156 40.5 46.640625 57.691406 C 26.960938 79.148438 18 110.539062 20.03125 151 C 20.128906 153.089844 44.609375 360 114 360 L 114.25 360 L 114.890625 359.988281 C 123.898438 359.769531 132.488281 356.148438 140.519531 349.21875 C 146.648438 353.820312 154.578125 356.539062 161.96875 357.621094 C 166.851562 358.769531 175.628906 360.398438 186.148438 360.398438 C 198.988281 360.398438 210.570312 357.769531 220.550781 353.019531 C 220.539062 361.820312 220.488281 372.960938 220.390625 387.199219 L 220.378906 387.949219 L 220.429688 388.699219 C 221.398438 402.890625 223.851562 415.679688 227.539062 425.710938 C 238.050781 454.300781 256.199219 470.050781 278.648438 470.050781 C 279.578125 470.050781 280.53125 470.019531 281.488281 469.960938 C 299.949219 468.820312 318.660156 458.449219 331.53125 442.238281 C 345.460938 424.691406 348.679688 406.171875 349.921875 391.980469 L 350 391.109375 L 350 349.441406 L 351.03125 349.539062 L 355.390625 349.921875 L 355.808594 349.960938 L 356.230469 349.980469 C 357.46875 350.039062 358.75 350.058594 360.039062 350.058594 C 375.109375 350.058594 393.660156 346.148438 406.199219 340.320312 C 418.191406 334.761719 445.589844 319.480469 440.828125 297.898438 Z M 440.828125 297.898438 "/>
<path style=" stroke:none;fill-rule:nonzero;fill:rgb(0.784314%,46.666667%,74.117647%);fill-opacity:1;" d="M 330 340 C 330 337.949219 330.121094 336.238281 330.179688 334.351562 C 330.078125 331.839844 330 330 330 330 C 330 330 330.121094 329.910156 330.320312 329.78125 C 331.808594 303.050781 339.179688 292.75 347.070312 286.878906 C 345.96875 285.351562 344.699219 283.699219 343.511719 282.128906 C 340.179688 277.761719 336.03125 272.339844 331.589844 265.390625 L 330.769531 263.808594 C 330.101562 262.171875 328.480469 259.339844 326.421875 255.621094 C 314.589844 234.21875 289.96875 189.699219 306.820312 161.578125 C 314.199219 149.261719 328.039062 142.160156 348.03125 140.410156 C 339.859375 117.179688 309.25 61.148438 239.851562 60 C 239.828125 60 239.808594 60 239.789062 60 C 179.378906 59.019531 159.53125 113.921875 153.070312 146.71875 C 161.96875 142.949219 172.128906 140.660156 181.429688 140.660156 C 181.570312 140.660156 181.71875 140.660156 181.859375 140.660156 C 204.761719 140.828125 220.511719 153.050781 225.089844 174.199219 C 228.441406 189.71875 230.050781 203.300781 230.011719 215.730469 C 229.910156 242.921875 224.429688 257.21875 219.589844 269.839844 L 218.050781 273.921875 C 216.808594 277.261719 215.5 280.371094 214.261719 283.289062 C 213 286.269531 211.890625 288.921875 211.078125 291.308594 C 215.921875 292.410156 219.71875 293.960938 222.328125 295.109375 L 223.839844 295.769531 C 224.308594 295.96875 224.78125 296.199219 225.210938 296.460938 C 233.691406 301.621094 238.96875 309.550781 240.101562 318.789062 C 240.710938 323.769531 240.609375 357.71875 240.398438 387.339844 C 241.269531 400.191406 243.449219 410.980469 246.328125 418.800781 C 250.421875 429.941406 260.640625 451.210938 280.269531 449.988281 C 293.96875 449.140625 307.140625 440.800781 315.878906 429.800781 C 325.261719 417.988281 328.71875 404.929688 330.019531 390.21875 L 330.019531 340 Z M 330 340 "/>
<path style=" stroke:none;fill-rule:nonzero;fill:rgb(0.784314%,46.666667%,74.117647%);fill-opacity:1;" d="M 151.140625 289.171875 C 135.011719 272.339844 127.148438 249.699219 130.101562 228.609375 C 132.949219 208.261719 131.339844 188.339844 130.46875 177.628906 C 130.179688 174.058594 129.988281 171.398438 130 169.929688 C 130 169.851562 130.019531 169.78125 130.03125 169.699219 C 130.03125 169.660156 130.011719 169.628906 130.011719 169.589844 C 131.21875 139.378906 142.871094 91.71875 174.941406 63.390625 C 159.320312 57.238281 133.878906 49.128906 110 50 C 72.578125 51.359375 36.359375 77.238281 40 150 C 41.371094 177.300781 72.21875 341.03125 114.398438 340 C 120.429688 339.851562 126.691406 335.980469 133.121094 328.238281 C 143.289062 316.011719 153.171875 304.921875 160.199219 297.199219 C 157.050781 294.808594 154.011719 292.171875 151.140625 289.171875 Z M 370.230469 147.308594 C 370.378906 148.851562 370.25 150.171875 370.011719 151.390625 C 370.320312 160.589844 369.328125 169.519531 368.320312 178.160156 C 367.578125 184.519531 366.820312 191.089844 366.609375 197.679688 C 366.398438 204.128906 367.308594 210.5 368.269531 217.238281 C 370.519531 233.019531 372.859375 250.828125 360.621094 271.609375 C 362.871094 274.570312 364.851562 277.320312 366.429688 279.980469 C 412.53125 205.230469 431.109375 116.371094 413.378906 93.71875 C 386.550781 59.441406 349.410156 49.519531 319.988281 50 C 310.78125 50.148438 302.410156 51.390625 295.261719 52.941406 C 346.019531 77.539062 368.628906 130.261719 370.230469 147.308594 Z M 410 300.710938 C 383.351562 306.210938 370.53125 303.28125 364.308594 299.449219 C 363.308594 300.171875 362.308594 300.78125 361.378906 301.351562 C 357.660156 303.601562 351.769531 307.179688 350.328125 329.171875 C 351.160156 329.328125 351.890625 329.421875 352.789062 329.609375 L 357.140625 330 C 370.339844 330.601562 387.628906 326.898438 397.769531 322.191406 C 419.621094 312.050781 431.53125 296.269531 410 300.710938 Z M 220.230469 321.191406 C 219.859375 318.210938 218.25 315.800781 215.308594 313.871094 L 214.230469 313.398438 C 210.621094 311.808594 206.53125 310 200 310 L 199.960938 310 C 198.691406 310.101562 197.429688 310.191406 196.160156 310.191406 C 195.640625 310.191406 195.128906 310.121094 194.609375 310.101562 C 189.871094 313.75 183.128906 316.570312 166.449219 320 C 136.648438 327.589844 154.238281 336.550781 165.671875 337.941406 C 176.730469 340.710938 203.019531 344.078125 220.480469 329.851562 C 220.429688 325.371094 220.351562 322.289062 220.230469 321.191406 Z M 220.230469 321.191406 "/>
<path style=" stroke:none;fill-rule:nonzero;fill:rgb(0.784314%,46.666667%,74.117647%);fill-opacity:1;" d="M 206.808594 185.011719 C 203.890625 188.03125 199.28125 190.671875 194.191406 189.851562 C 185.910156 188.511719 179.558594 178.519531 180.019531 174.769531 C 180.460938 171.03125 187.53125 169.078125 195.800781 170.421875 C 198.671875 170.890625 201.28125 171.699219 203.480469 172.699219 C 200.28125 165.820312 194.488281 161.851562 185.660156 160.878906 C 170.011719 159.140625 153.398438 167.320312 150.058594 171.851562 C 150.128906 172.949219 150.261719 174.359375 150.390625 176.019531 C 151.320312 187.488281 153.039062 208.859375 149.890625 231.390625 C 147.808594 246.238281 153.820312 263.078125 165.558594 275.339844 C 173.128906 283.238281 181.96875 288.238281 190.691406 289.71875 C 191.800781 284.941406 193.78125 280.28125 195.820312 275.46875 C 196.949219 272.820312 198.148438 270 199.28125 266.949219 L 200.898438 262.679688 C 205.328125 251.128906 209.898438 239.179688 209.988281 215.648438 C 210.03125 206.601562 208.921875 196.269531 206.808594 185.011719 Z M 348.46875 220.070312 C 347.429688 212.78125 346.359375 205.230469 346.621094 197.039062 C 346.851562 189.621094 347.671875 182.621094 348.460938 175.851562 C 349.078125 170.519531 349.558594 165.398438 349.839844 160.351562 C 336.949219 161.421875 328.390625 165.140625 324.328125 171.429688 C 326.011719 170.859375 327.910156 170.410156 330.011719 170.140625 C 338.929688 168.980469 345.441406 171.550781 346.191406 176.511719 C 346.738281 180.140625 343.660156 183.558594 342.308594 184.871094 C 339.539062 187.558594 336.050781 189.289062 332.5 189.75 C 331.859375 189.828125 331.210938 189.871094 330.578125 189.871094 C 327.050781 189.871094 323.679688 188.660156 321.089844 186.871094 C 322.210938 206.601562 336.761719 232.988281 343.921875 245.941406 C 345.449219 248.710938 346.628906 250.921875 347.609375 252.820312 C 351.539062 241.628906 350.089844 231.429688 348.46875 220.070312 Z M 348.46875 220.070312 "/>
</g>
</svg>
